<svg width="1012" height="459" viewBox="0 0 1012 459" fill="none" xmlns="http://www.w3.org/2000/svg">
<path d="M345.393 0L110.327 7.58901e-09C49.3788 9.55557e-09 -1.98092e-09 49.7668 0 111.121L7.65376e-09 347.879C9.63573e-09 409.266 49.4112 459 110.327 459H345.393C406.341 459 455.72 409.233 455.72 347.879V111.121C455.72 49.7342 406.309 -1.96551e-09 345.393 0ZM150.302 87.816C154.406 83.7149 160.74 82.055 166.33 83.5848C172.18 85.1796 176.639 89.8015 180.808 94.2281C190.47 104.481 200.101 114.734 209.763 124.954C216.323 131.919 216 142.888 209.117 149.463C202.266 156.005 191.44 155.745 184.88 148.877C175.023 138.559 165.199 128.274 155.343 117.956C151.4 113.822 147.296 109.428 145.874 103.895C144.42 98.2641 146.165 91.9172 150.269 87.816H150.302ZM212.639 370.533C210.28 371.867 207.953 373.235 205.594 374.569C196.772 379.647 185.235 377.14 179.838 368.971C175.573 362.493 176.445 354.389 181.454 348.823C182.876 347.261 185.332 346.903 187.142 348.042L212.801 363.86C215.386 365.455 215.289 369.003 212.639 370.533ZM270.582 365.293C267.286 369.882 262.115 372.356 256.815 372.356C253.971 372.356 251.128 371.64 248.51 370.142L96.7864 284.084L115.562 264.555L281.084 87.2627C287.58 80.2973 298.503 79.9393 305.418 86.5141C309.005 89.9317 310.847 94.5211 310.847 99.143C310.847 103.407 309.296 107.671 306.162 111.023L152.305 275.849L265.217 340.393C274.007 345.438 276.528 357.058 270.582 365.293ZM358.126 283.921C335.569 297.885 313.045 311.848 290.488 325.844C284.962 329.261 277.917 333.2 271.196 331.572C269.677 331.214 268.352 330.466 266.962 329.782C265.831 329.229 264.733 328.545 263.763 327.732C261.792 326.137 260.208 324.054 259.077 321.808C256.783 317.251 256.104 311.75 257.623 306.868C258.172 305.045 259.045 303.353 260.176 301.855C262.955 298.21 266.93 295.736 270.84 293.36C281.795 286.688 292.718 280.015 303.673 273.343C284.93 253.684 266.154 234.057 247.411 214.397C240.916 207.595 241.174 196.724 247.993 190.246C254.779 183.802 265.444 184.095 271.874 190.897C300.926 221.753 329.946 252.577 358.998 283.433C358.74 283.596 358.449 283.791 358.158 283.954L358.126 283.921Z" fill="black"/>
<path d="M898.975 254.758C898.975 258.226 897.462 261.342 895.035 263.605C892.609 265.869 889.236 267.279 885.549 267.279H772.097C771.183 267.279 770.301 267.191 769.45 267.044C769.387 267.044 769.324 267.015 769.261 267.015C767.465 266.574 765.731 265.81 764.187 264.663C760.846 262.194 759.145 258.55 759.145 254.846C759.145 252.112 760.09 249.349 762.076 247.057L763.998 244.823L859.455 133.216H770.774C763.368 133.216 757.348 127.601 757.348 120.694C757.348 113.786 763.368 108.172 770.774 108.172H884.226C885.108 108.172 885.99 108.26 886.81 108.407C889.867 108.319 892.955 109.201 895.539 111.112C901.338 115.432 902.283 123.31 897.651 128.718L800.555 242.266H885.581C892.987 242.266 899.006 247.88 899.006 254.787L898.975 254.758Z" fill="black"/>
<path d="M740.389 127.227L655.515 323.649C652.807 329.905 645.817 332.653 639.905 329.788C633.992 326.923 631.395 319.527 634.103 313.271L659.659 254.131L599.429 126.174C596.528 120.006 598.904 112.551 604.706 109.482C610.536 106.412 617.581 108.926 620.482 115.065L672.23 224.985L718.949 116.819C721.657 110.563 728.647 107.815 734.559 110.68C740.472 113.545 743.069 120.941 740.361 127.198L740.389 127.227Z" fill="black"/>
<path d="M1011.97 130.321C1011.97 133.049 1011.12 135.717 1009.29 137.585C1005.62 141.38 999.821 140.876 994.74 140.461C983.445 139.571 971.902 140.461 961.132 144.226C953.013 147.072 944.866 152.172 941.663 160.681C939.84 165.484 939.84 170.851 939.868 176.039C939.951 200.114 940.034 224.159 940.144 248.233C940.144 252.74 940.116 257.543 937.935 261.397C935.726 265.281 931.39 267.624 927.192 267.238C922.94 266.853 919.985 264.006 917.831 260.271C916.671 258.284 916.754 255.942 916.643 253.629C916.505 250.813 916.505 247.967 916.505 245.15C916.505 245.031 916.505 244.913 916.505 244.824C916.505 205.243 916.505 165.632 916.505 126.052C916.505 122.019 916.561 117.78 918.383 114.281C920.289 110.605 924.127 108.233 928.049 108.173C931.97 108.114 935.836 110.397 937.962 113.925C940.31 117.809 940.503 122.731 940.034 127.326C948.871 122.049 958.066 117.305 967.842 114.607C977.618 111.909 988.112 111.375 997.805 114.518C1002.53 116.03 1007.22 118.61 1009.96 122.998C1011.28 125.132 1012.03 127.771 1012 130.321H1011.97Z" fill="black"/>
<path d="M591.913 263.482C587.832 266.441 582.558 267.507 577.523 267.24C565.426 266.589 551.542 260.078 544.57 250.016C538.79 241.729 537.002 231.429 536.138 221.574C535.84 218.2 535.9 214.796 535.87 211.422L535.661 189.018C535.632 183.868 535.572 178.719 535.542 173.569C535.483 167.857 535.453 162.145 535.393 156.403C535.334 150.395 535.304 144.387 535.244 138.379L534.797 87.5925C534.768 83.2419 534.708 78.8913 534.678 74.5407L534.589 64.8628L534.529 59.3579C534.529 59.0323 534.529 58.7364 534.529 58.4108C534.47 50.8047 540.637 44.5895 548.265 44.5303C555.832 44.4711 562.059 50.4495 562.238 57.9669V60.8377C562.268 63.3238 562.298 65.8098 562.327 68.2663L562.417 79.6016C562.447 84.3961 562.506 89.1907 562.536 93.9852C562.596 99.4901 562.625 105.025 562.685 110.529L562.834 128.376C562.894 134.473 562.953 140.569 562.983 146.666L563.132 164.542C563.192 170.077 563.221 175.582 563.281 181.116L563.4 195.529C563.43 199.318 563.46 203.135 563.489 206.924L563.549 214.441C563.549 216.868 563.341 219.325 563.758 221.751C564.115 223.794 564.681 225.806 565.515 227.671C567.095 231.252 569.687 234.478 573.322 236.135C578.387 238.473 584.286 237.319 589.411 239.42C593.91 241.226 597.545 245.606 598.111 250.43C598.707 255.432 595.965 260.463 591.884 263.423L591.913 263.482Z" fill="black"/>
<path d="M970.122 405.016C956.485 405.016 948.124 395.836 948.124 380.97C948.124 366.104 956.485 356.787 970.122 356.787C983.691 356.787 992.12 366.104 992.12 380.97C992.12 395.836 983.691 405.016 970.122 405.016ZM970.122 399.604C979.853 399.604 985.678 392.548 985.678 380.97C985.678 369.324 979.853 362.199 970.122 362.199C960.391 362.199 954.566 369.324 954.566 380.97C954.566 392.548 960.391 399.604 970.122 399.604Z" fill="black"/>
<path d="M933.182 404.194V357.609H939.486V404.194H933.182Z" fill="black"/>
<path d="M885.741 404.194V357.609H900.955C915.414 357.609 924.46 366.378 924.46 380.97C924.46 395.562 915.414 404.194 900.955 404.194H885.741ZM900.955 399.056C911.645 399.056 918.018 392.342 918.018 380.97C918.018 369.461 911.645 362.747 900.955 362.747H892.046V399.056H900.955Z" fill="black"/>
<path d="M875.968 386.451C875.968 397.96 868.841 405.016 857.396 405.016C845.883 405.016 838.756 397.96 838.756 386.451V357.609H845.129V386.451C845.129 394.877 849.721 399.947 857.396 399.947C865.071 399.947 869.663 394.809 869.663 386.451V357.609H875.968V386.451Z" fill="black"/>
<path d="M809.897 404.194V362.953H793.93V357.609H832.169V362.953H816.202V404.194H809.897Z" fill="black"/>
<path d="M763.408 368.981C763.408 382.135 791.985 371.927 791.985 391.041C791.985 400.015 784.721 405.016 774.784 405.016C764.779 405.016 757.926 400.426 755.87 391.041H762.449C763.956 396.59 768.137 399.604 774.853 399.604C781.843 399.604 785.543 396.521 785.543 391.863C785.543 377.613 756.966 388.232 756.966 369.392C756.966 362.679 762.586 356.787 772.865 356.787C781.843 356.787 789.038 361.103 790.751 371.036H784.104C782.665 364.871 778.69 362.199 772.728 362.199C766.835 362.199 763.408 364.871 763.408 368.981Z" fill="black"/>
<path d="M717.166 404.194V362.953H701.198V357.609H739.438V362.953H723.471V404.194H717.166Z" fill="black"/>
<path d="M657.046 404.194V357.609H663.625L685.074 390.493L687.747 395.083V357.609H694.052V404.194H687.473L666.092 371.516L663.351 366.72V404.194H657.046Z" fill="black"/>
<path d="M617.435 404.194V357.609H649.027V362.747H623.74V377.476H646.492V382.614H623.74V399.056H649.027V404.194H617.435Z" fill="black"/>
<path d="M608.035 404.194H603.307L602.827 396.864C599.949 402.413 594.809 405.016 588.641 405.016C576.032 405.016 568.014 395.905 568.014 380.97C568.014 366.104 576.032 356.787 589.189 356.787C598.167 356.787 605.842 361.719 608.104 371.036H601.525C599.812 365.35 594.946 362.199 588.984 362.199C579.869 362.199 574.456 369.324 574.456 380.97C574.456 392.616 579.938 399.604 589.189 399.604C596.111 399.604 601.593 395.357 602.004 385.355H590.08V380.353H608.035V404.194Z" fill="black"/>
<path d="M559.542 404.194L555.156 393.027H532.816L528.43 404.194H522.193L540.491 357.609H547.755L566.121 404.194H559.542ZM542.615 367.817L534.734 387.958H553.237L545.356 367.817L543.986 363.706L542.615 367.817Z" fill="black"/>
</svg>
